<?xml version="1.0" encoding="utf-8"?>
<!-- Generator: Adobe Illustrator 23.0.2, SVG Export Plug-In . SVG Version: 6.00 Build 0)  -->
<svg version="1.1" id="Layer_1" xmlns="http://www.w3.org/2000/svg" xmlns:xlink="http://www.w3.org/1999/xlink" x="0px" y="0px"
	 viewBox="0 0 32 40" style="enable-background:new 0 0 32 40;" xml:space="preserve">
<style type="text/css">
	.st0{fill:#0A7191;}
</style>
<title>Artboard 1</title>
<g>
	<path class="st0" d="M30.7,15.3l-2-2l0,0l-12-12c-0.4-0.4-1-0.4-1.4,0l-12,12l0,0l-2,2c-0.4,0.4-0.3,1.1,0.1,1.4
		c0.4,0.3,0.9,0.3,1.3,0L3,16.4V30c0,0.6,0.4,1,1,1h24c0.6,0,1-0.4,1-1V16.4l0.3,0.3c0.4,0.4,1.1,0.3,1.4-0.1
		C31,16.2,31,15.7,30.7,15.3L30.7,15.3z M19,29h-6v-9h6V29z M27,29h-6V19c0-0.6-0.4-1-1-1h-8c-0.6,0-1,0.4-1,1v10H5V14.4l11-11
		l11,11V29z"/>
</g>
</svg>
